<svg xmlns="http://www.w3.org/2000/svg" viewBox="0 0 512 512" role="img" aria-label="ND">
  <path fill="#050505" d="M255 0H105Q69 0 69 36V684Q69 720 105 720H209Q245 720 268 693L462 471V684Q462 720 498 720H648Q684 720 684 684V36Q684 0 648 0H498Q462 0 462 36V159L291 366V36Q291 0 255 0Z" transform="translate(35 332) scale(0.365 -0.365)"/>
  <path fill="#2E6450" d="M442 0H105Q69 0 69 36V684Q69 720 105 720H442Q568 720 628.0 670.0Q688 620 688 516V204Q688 100 628.0 50.0Q568 0 442 0ZM296 529V189H415Q462 189 462 238V481Q462 529 415 529Z" transform="translate(237 359) scale(0.305 -0.305)"/>
</svg>
